/* XPM */
static char * images_xpm[] = {
"26 26 40 1",
" 	c None",
".	c #EAEAEA",
"+	c #E5E5E5",
"@	c #D8D8D8",
"#	c #D9D9D9",
"$	c #FFFFFF",
"%	c #D5D5D5",
"&	c #F9F9F9",
"*	c #F0F0F0",
"=	c #FBFBFB",
"-	c #EFEFEF",
";	c #D2D2D2",
">	c #E2E2E2",
",	c #DBDBDB",
"'	c #E6E6E6",
")	c #E9E9E9",
"!	c #DEDEDE",
"~	c #CCCCCC",
"{	c #E4E4E4",
"]	c #E0E0E0",
"^	c #CACACA",
"/	c #E7E7E7",
"(	c #CECECE",
"_	c #E8E8E8",
":	c #DCDCDC",
"<	c #FEFEFE",
"[	c #D1D1D1",
"}	c #E3E3E3",
"|	c #EDEDED",
"1	c #C7C7C7",
"2	c #D7D7D7",
"3	c #D0D0D0",
"4	c #C6C6C6",
"5	c #CFCFCF",
"6	c #DFDFDF",
"7	c #DDDDDD",
"8	c #CBCBCB",
"9	c #DADADA",
"0	c #FCFCFC",
"a	c #D3D3D3",
"                          ",
"                          ",
"                          ",
"            ..            ",
"        +@#$$$$##+        ",
"      %&* =$$$$= -&;      ",
"      >*,'$$$$$$',*>      ",
"     )!  ~{]).]{^  !)     ",
"    {$$/(_/,::,/_(/$$+    ",
"    <$$>'$$$$$$$$+>$$<    ",
"   >$$$ )$$$$$$$$)[$$$]   ",
"   }$$$ |$$$$$$$$| $$$}   ",
"   122@ 3222222223 2224   ",
"   4222 5222222225 2224   ",
"   }$$$ |$$$$$$$$| $$$}   ",
"   6$$$ )$$$$$$$$) $$$6   ",
"    <$$>'$$$$$$$$'>$$<    ",
"    {$$/(//::::_/(/$${    ",
"     _7  8{6))6{8  !_     ",
"      >*9'$$$$$$'9*>      ",
"      ;&* =$$$$0 -&a      ",
"        {@#$$$<#@+        ",
"            ).            ",
"                          ",
"                          ",
"                          "};
