/* XPM */
static char * notification_bell_icon_incoming_inbox_260nw_1667755825_1_xpm[] = {
"20 22 12 1",
" 	c None",
".	c #BBBBBB",
"+	c #BDBDBD",
"@	c #B1B1B1",
"#	c #AFAFAF",
"$	c #B6B6B6",
"%	c #B7B7B7",
"&	c #B8B8B8",
"*	c #B5B5B5",
"=	c #B9B9B9",
"-	c #BCBCBC",
";	c #B2B2B2",
"         .+@        ",
"           #        ",
"        $%%&        ",
"       .+++++%      ",
"      .+++++++$     ",
"     *+++++++++     ",
"     %+++++++++     ",
"     %+++++++++     ",
"     %+++++++++     ",
"     %+++++++++=    ",
"     -+++++++++;    ",
"     ++++++++++&    ",
"    $+++++++++++    ",
"    ++++++++++++=   ",
"   @......-.-.-..   ",
"                    ",
"        ++++=       ",
"        %++-        ",
"                    ",
"                    ",
"                    ",
"                    "};
