/* XPM */
static char * key4_xpm[] = {
"20 20 37 1",
" 	c None",
".	c #E5E5E5",
"+	c #D4D4D4",
"@	c #E0E0E0",
"#	c #CACACA",
"$	c #CDCDCD",
"%	c #F8F8F8",
"&	c #FEFEFE",
"*	c #FFFFFF",
"=	c #FDFDFD",
"-	c #E6E6E6",
";	c #FBFBFB",
">	c #E2E2E2",
",	c #C2C2C2",
"'	c #C1C1C1",
")	c #FCFCFC",
"!	c #F7F7F7",
"~	c #EBEBEB",
"{	c #F2F2F2",
"]	c #DEDEDE",
"^	c #E1E1E1",
"/	c #D3D3D3",
"(	c #FAFAFA",
"_	c #C0C0C0",
":	c #E3E3E3",
"<	c #E8E8E8",
"[	c #DCDCDC",
"}	c #B5B5B5",
"|	c #BABABA",
"1	c #DDDDDD",
"2	c #B6B6B6",
"3	c #C4C4C4",
"4	c #CECECE",
"5	c #C8C8C8",
"6	c #E7E7E7",
"7	c #D5D5D5",
"8	c #CFCFCF",
"                    ",
"                    ",
"                    ",
"                    ",
"                    ",
"   .+@#             ",
" $%&**=-            ",
" ;*****&>,,,,,,,,'  ",
".)>!****&=========~ ",
"{]  &**************^",
"{@ /&******&(&)*;&(_",
":=<%****&&)[}^|12@3 ",
" ;*****&.45         ",
" 4%&**=6            ",
"   67^8             ",
"                    ",
"                    ",
"                    ",
"                    ",
"                    "};
