/* XPM */
static char * deviantart_xpm[] = {
"40 40 42 1",
" 	c None",
".	c #F0F0F0",
"+	c #FFFFFF",
"@	c #FCFCFC",
"#	c #FEFEFE",
"$	c #F7F7F7",
"%	c #FDFDFD",
"&	c #FBFBFB",
"*	c #F5F5F5",
"=	c #F8F8F8",
"-	c #FAFAFA",
";	c #E8E8E8",
">	c #F6F6F6",
",	c #FCFCFB",
"'	c #EBEBEB",
")	c #F3F3F3",
"!	c #D6D6D6",
"~	c #DBDBDB",
"{	c #FBFAFA",
"]	c #F9F9F9",
"^	c #E1E1E1",
"/	c #F7F7F6",
"(	c #F4F4F4",
"_	c #F1F1F1",
":	c #FAFAF9",
"<	c #F9F9F8",
"[	c #F5F5F4",
"}	c #F4F4F3",
"|	c #F8F8F7",
"1	c #F6F5F5",
"2	c #F8F7F7",
"3	c #F6F6F5",
"4	c #F1F0F0",
"5	c #E2E2E2",
"6	c #E4E4E4",
"7	c #F5F4F4",
"8	c #EBEAEA",
"9	c #F2F2F1",
"0	c #F3F2F2",
"a	c #E9E8E8",
"b	c #E5E5E5",
"c	c #E3E3E3",
"                                        ",
"                                        ",
"                                        ",
"                                        ",
"                                        ",
"                                        ",
"                                        ",
"                                        ",
"                                        ",
"                                        ",
"                      .+++              ",
"                      @###              ",
"                     $%###              ",
"                     &###*              ",
"               =====&%%%-;              ",
"               %@@@@@@@@>               ",
"               @,,,,,,,-'               ",
"               $$$&&&&&)                ",
"               !!~>{{{]^                ",
"                  /---(                 ",
"                 _:<<</[}[              ",
"                 |=====<<-              ",
"                122222222]              ",
"                3///3[[[[/              ",
"               41>>);55556              ",
"               71178                    ",
"               3((9                     ",
"               0_4a                     ",
"               b6c                      ",
"                                        ",
"                                        ",
"                                        ",
"                                        ",
"                                        ",
"                                        ",
"                                        ",
"                                        ",
"                                        ",
"                                        ",
"                                        "};
